<?xml version="1.0" encoding="UTF-8"?>
<svg version="1.1" xmlns="http://www.w3.org/2000/svg" width="181" height="204">
<path d="M0 0 C4.740415 4.43980332 5.77314049 9.35526855 6.640625 15.64453125 C6.8786113 18.0132189 6.8786113 18.0132189 8 20 C10.12021687 20.46621089 10.12021687 20.46621089 12.625 20.75 C17.9865071 21.72551777 21.5897171 23.70808147 25 28 C26.76902994 31.71822713 27.25367943 34.67149064 27.26742554 38.772995 C27.28022049 40.50335747 27.28022049 40.50335747 27.29327393 42.26867676 C27.29191437 44.15374939 27.29191437 44.15374939 27.29052734 46.0769043 C27.2965154 47.42100904 27.30332159 48.76511034 27.31088257 50.10920715 C27.32852625 53.75411282 27.33323738 57.39892453 27.33451414 61.04386878 C27.33593776 63.32462837 27.34021144 65.60536424 27.34550858 67.88611794 C27.36400673 75.85337458 27.37217987 83.82056439 27.37060547 91.7878418 C27.36940562 99.19677873 27.39047751 106.60542361 27.4220928 114.0142867 C27.4483154 120.38817794 27.4589702 126.76197419 27.45769465 133.13591892 C27.45718657 136.93687988 27.46278329 140.73758148 27.48405075 144.53848839 C27.50353331 148.118151 27.50349019 151.69730964 27.48901749 155.27699089 C27.48595674 157.20257915 27.50253747 159.12816799 27.51989746 161.05368042 C27.45590475 169.96092022 25.99713316 178.76876957 19.75 185.62109375 C11.05696999 192.4707357 2.17232764 194.14776272 -8.49682617 194.16113281 C-9.44709686 194.16609772 -10.39736755 194.17106262 -11.37643433 194.17617798 C-14.51528656 194.19076324 -17.65408822 194.19759616 -20.79296875 194.203125 C-22.98147075 194.20888018 -25.16997274 194.21463787 -27.35847473 194.22039795 C-31.94740025 194.23089811 -36.5363083 194.23674698 -41.12524414 194.24023438 C-46.98818331 194.24571186 -52.8508894 194.2697283 -58.71375561 194.29820633 C-63.23581096 194.31688709 -67.75781083 194.32204124 -72.2799015 194.32357025 C-74.44032373 194.32658587 -76.60074524 194.33457732 -78.76112938 194.34775543 C-81.79299703 194.3649269 -84.82430381 194.36290842 -87.85620117 194.35644531 C-88.7381163 194.3656601 -89.62003143 194.37487488 -90.52867126 194.3843689 C-99.7328327 194.32331109 -108.8424666 192.03129626 -116 186 C-119.62887554 181.9989321 -122.68538832 177.88640244 -125 173 C-125.391875 172.29875 -125.78375 171.5975 -126.1875 170.875 C-126.5896875 169.946875 -126.5896875 169.946875 -127 169 C-126.505 168.01 -126.505 168.01 -126 167 C-125.91657841 165.55151418 -125.89267139 164.09929131 -125.90234375 162.6484375 C-125.90556641 161.79765625 -125.90878906 160.946875 -125.91210938 160.0703125 C-125.92048828 159.18085938 -125.92886719 158.29140625 -125.9375 157.375 C-125.94426758 156.02921875 -125.94426758 156.02921875 -125.95117188 154.65625 C-125.96297409 152.43743352 -125.97943845 150.21874982 -126 148 C-126.66 148 -127.32 148 -128 148 C-127.505 147.01 -127.505 147.01 -127 146 C-126.91691362 144.62451844 -126.89263984 143.24514204 -126.90234375 141.8671875 C-126.90556641 141.06152344 -126.90878906 140.25585938 -126.91210938 139.42578125 C-126.92048828 138.58402344 -126.92886719 137.74226562 -126.9375 136.875 C-126.94201172 136.02550781 -126.94652344 135.17601562 -126.95117188 134.30078125 C-126.96297126 132.20049091 -126.98090694 130.1002367 -127 128 C-127.33 128 -127.66 128 -128 128 C-128 124.04 -128 120.08 -128 116 C-127.67 116 -127.34 116 -127 116 C-126.67 104.78 -126.34 93.56 -126 82 C-120.72 82 -115.44 82 -110 82 C-109.67 107.74 -109.34 133.48 -109 160 C-98.77 156.7 -88.54 153.4 -78 150 C-72.80588181 148.36485367 -67.6125147 146.73015249 -62.41256714 145.11416626 C-48.90330597 140.91333063 -35.45701957 136.54915113 -22.06225586 131.99609375 C-20.89573486 131.60164062 -19.72921387 131.2071875 -18.52734375 130.80078125 C-17.50374756 130.45184814 -16.48015137 130.10291504 -15.42553711 129.7434082 C-13 129 -13 129 -11 129 C-10.13775407 126.01628883 -9.87626848 123.36851786 -9.87974548 120.26702881 C-9.87837082 119.3191449 -9.87699615 118.37126099 -9.87557983 117.39465332 C-9.87917511 116.36175171 -9.88277039 115.3288501 -9.88647461 114.26464844 C-9.88632858 113.17166443 -9.88618256 112.07868042 -9.8860321 110.95257568 C-9.88672904 107.3381553 -9.89451124 103.72378639 -9.90234375 100.109375 C-9.90420871 97.60402454 -9.90563224 95.09867371 -9.90663147 92.59332275 C-9.91006013 86.67189789 -9.91794249 80.75048956 -9.92798096 74.82907319 C-9.94025999 67.42511458 -9.94562698 60.02115368 -9.95117188 52.6171875 C-9.9618984 39.41144894 -9.97877543 26.20572564 -10 13 C-11.98 12.34 -13.96 11.68 -16 11 C-16 10.34 -16 9.68 -16 9 C-21.29209315 10.2794394 -26.49071963 11.71838435 -31.67578125 13.3828125 C-33.09436944 13.83213104 -34.51299016 14.28134689 -35.93164062 14.73046875 C-38.13535208 15.43121195 -40.33860506 16.13334424 -42.54125977 16.83740234 C-44.68911 17.5229117 -46.83856966 18.20316679 -48.98828125 18.8828125 C-49.6476619 19.09527618 -50.30704254 19.30773987 -50.98640442 19.52664185 C-53.78706773 20.40952572 -56.04156751 21 -59 21 C-59.33 21.66 -59.66 22.32 -60 23 C-62.82799151 23.6443525 -65.66118149 24.02326331 -68.53125 24.4375 C-69.3459375 24.623125 -70.160625 24.80875 -71 25 C-71.33 25.66 -71.66 26.32 -72 27 C-73.32488113 27.36548445 -74.66018514 27.6937566 -76 28 C-77.3479743 28.63654342 -78.68596724 29.29605388 -80 30 C-80.33 29.34 -80.66 28.68 -81 28 C-81 28.99 -81 29.98 -81 31 C-83.31 30.67 -85.62 30.34 -88 30 C-88 25.05 -88 20.1 -88 15 C-76.43370095 11.08680769 -64.8033887 7.43786072 -53.125 3.875 C-50.53627783 3.08432474 -47.94773547 2.29307538 -45.35958862 1.5005188 C-43.76710619 1.01293768 -42.17429773 0.52641942 -40.58108521 0.04122925 C-36.00987238 -1.3574334 -31.46969332 -2.8290451 -26.94332886 -4.36691284 C-17.37322279 -7.48461021 -8.02046343 -6.0866758 0 0 Z M6 35 C5.8259198 42.56234331 5.66111186 50.12487001 5.5 57.6875 C5.47565887 58.81502686 5.45131775 59.94255371 5.42623901 61.10424805 C5.17751973 72.80560082 4.95090985 84.5026201 5.00390625 96.20703125 C5.0074411 97.05392014 5.01097595 97.90080902 5.01461792 98.77336121 C5.03461426 102.68221324 5.06985729 106.59027037 5.125 110.4987793 C5.33993847 130.8258591 5.33993847 130.8258591 -1 138 C-7.63304992 143.46345416 -15.90514126 145.56214682 -24.03125 147.85546875 C-29.8631302 149.51129614 -35.64532481 151.33647236 -41.4375 153.125 C-42.64599609 153.49753906 -43.85449219 153.87007813 -45.09960938 154.25390625 C-48.06660397 155.16863186 -51.03339389 156.08401541 -54 157 C-54 157.33 -54 157.66 -54 158 C-45.83763585 158.02316034 -37.67528541 158.04093395 -29.51289654 158.05181217 C-25.72285998 158.0570329 -21.93284589 158.0641159 -18.14282227 158.07543945 C-14.48591198 158.08629704 -10.82902332 158.09228295 -7.17209816 158.09487724 C-5.77623975 158.0967263 -4.38038253 158.10033699 -2.98453331 158.10573006 C-1.03096036 158.11297844 0.92263431 158.11340838 2.8762207 158.11352539 C3.9887471 158.115746 5.1012735 158.11796661 6.24751282 158.12025452 C9.0909224 158.12220281 9.0909224 158.12220281 12 157 C12 155.906875 12 154.81375 12 153.6875 C12 115.125 12 76.5625 12 38 C11.01 38 10.02 38 9 38 C8.505 37.01 8.505 37.01 8 36 C7.34 35.67 6.68 35.34 6 35 Z M-99.6875 174.5 C-100.120625 174.995 -100.55375 175.49 -101 176 C-99.24102049 178.24758493 -98.21741815 178.95076685 -95.39640808 179.58956909 C-91.51208672 180.05896073 -87.68784629 180.13998292 -83.7824707 180.12939453 C-82.97996384 180.13114685 -82.17745697 180.13289917 -81.35063171 180.13470459 C-78.7089926 180.13908971 -76.067421 180.13619548 -73.42578125 180.1328125 C-71.57740771 180.13348683 -69.72903425 180.13445793 -67.88066101 180.13571167 C-64.00807856 180.1371844 -60.13551921 180.13504894 -56.26293945 180.13037109 C-51.32503815 180.12469406 -46.38719145 180.12794263 -41.44929218 180.13394356 C-37.6306264 180.13757772 -33.8119733 180.13639719 -29.99330711 180.13381577 C-28.17423687 180.13315334 -26.35516543 180.13395074 -24.53609657 180.13629532 C-7.29696154 181.39553769 -7.29696154 181.39553769 8 176 C8.33 175.01 8.66 174.02 9 173 C8.14535156 173 7.29070312 173 6.41015625 173 C-49.82050975 167.25692915 -49.82050975 167.25692915 -99.6875 174.5 Z " fill="#292A2A" transform="translate(153,10)"/>
<path d="M0 0 C0.98484375 -0.00128906 1.9696875 -0.00257812 2.984375 -0.00390625 C4.02078125 -0.00003906 5.0571875 0.00382812 6.125 0.0078125 C7.67960937 0.00201172 7.67960937 0.00201172 9.265625 -0.00390625 C10.25046875 -0.00261719 11.2353125 -0.00132813 12.25 0 C13.16007812 0.00112793 14.07015625 0.00225586 15.0078125 0.00341797 C17.125 0.1328125 17.125 0.1328125 18.125 1.1328125 C18.21213831 2.84053608 18.23200007 4.55179899 18.22265625 6.26171875 C18.21943359 7.29619141 18.21621094 8.33066406 18.21289062 9.39648438 C18.20451172 10.48509766 18.19613281 11.57371094 18.1875 12.6953125 C18.18298828 13.78779297 18.17847656 14.88027344 18.17382812 16.00585938 C18.16199826 18.71489745 18.14551543 21.42382849 18.125 24.1328125 C12.05353635 26.28826437 12.05353635 26.28826437 8.125 25.1328125 C5.45196922 25.03476697 2.80108809 25.08821103 0.125 25.1328125 C0.125 25.4628125 0.125 25.7928125 0.125 26.1328125 C-2.25 26.3203125 -2.25 26.3203125 -4.875 26.1328125 C-7.10778283 22.78363825 -7.08457032 21.93152033 -6.88671875 18.0625 C-6.83966797 17.08410156 -6.79261719 16.10570313 -6.74414062 15.09765625 C-6.68419922 14.07800781 -6.62425781 13.05835937 -6.5625 12.0078125 C-6.51416016 10.98042969 -6.46582031 9.95304687 -6.41601562 8.89453125 C-5.95228698 0.00737713 -5.95228698 0.00737713 0 0 Z " fill="#272727" transform="translate(32.875,54.8671875)"/>
<path d="M0 0 C7.92 0 15.84 0 24 0 C24.33 3.63 24.66 7.26 25 11 C25.33 11 25.66 11 26 11 C26 13.31 26 15.62 26 18 C25.34 18 24.68 18 24 18 C24 19.65 24 21.3 24 23 C19.15635354 25.5471764 14.50436055 25.22729084 9.1875 25.125 C6.155625 25.08375 3.12375 25.0425 0 25 C0 16.75 0 8.5 0 0 Z " fill="#2A2A2A" transform="translate(31,0)"/>
<path d="M0 0 C0 0.66 0 1.32 0 2 C0.66 2.33 1.32 2.66 2 3 C1.34 3 0.68 3 0 3 C0.01160156 4.14339844 0.02320312 5.28679688 0.03515625 6.46484375 C0.04453288 7.95572754 0.05363321 9.44661309 0.0625 10.9375 C0.07087891 11.69224609 0.07925781 12.44699219 0.08789062 13.22460938 C0.09652441 15.14994313 0.05224333 17.07535581 0 19 C-1.58937556 20.58937556 -3.23899846 20.12981143 -5.4375 20.1328125 C-6.77941406 20.13474609 -6.77941406 20.13474609 -8.1484375 20.13671875 C-9.08945313 20.13285156 -10.03046875 20.12898438 -11 20.125 C-12.41152344 20.13080078 -12.41152344 20.13080078 -13.8515625 20.13671875 C-14.74617187 20.13542969 -15.64078125 20.13414063 -16.5625 20.1328125 C-17.38878906 20.13168457 -18.21507812 20.13055664 -19.06640625 20.12939453 C-21 20 -21 20 -22 19 C-22.08669432 17.5112814 -22.10703494 16.018555 -22.09765625 14.52734375 C-22.09443359 13.62822266 -22.09121094 12.72910156 -22.08789062 11.80273438 C-22.07951172 10.85720703 -22.07113281 9.91167969 -22.0625 8.9375 C-22.05798828 7.98810547 -22.05347656 7.03871094 -22.04882812 6.06054688 C-22.0370011 3.70696935 -22.02052025 1.35351523 -22 -1 C-21.19175781 -0.98839844 -20.38351563 -0.97679688 -19.55078125 -0.96484375 C-18.48214844 -0.95582031 -17.41351563 -0.94679688 -16.3125 -0.9375 C-14.72888672 -0.92009766 -14.72888672 -0.92009766 -13.11328125 -0.90234375 C-10.04587459 -0.9093276 -10.04587459 -0.9093276 -7.28125 -1.5625 C-4.31427472 -2.13150896 -2.66945433 -1.29659211 0 0 Z " fill="#2D2E2D" transform="translate(22,30)"/>
<path d="M0 0 C0.98484375 -0.00128906 1.9696875 -0.00257812 2.984375 -0.00390625 C4.02078125 -0.00003906 5.0571875 0.00382812 6.125 0.0078125 C7.67960937 0.00201172 7.67960937 0.00201172 9.265625 -0.00390625 C10.25046875 -0.00261719 11.2353125 -0.00132813 12.25 0 C13.16007812 0.00112793 14.07015625 0.00225586 15.0078125 0.00341797 C17.125 0.1328125 17.125 0.1328125 18.125 1.1328125 C18.21213831 2.84053608 18.23200007 4.55179899 18.22265625 6.26171875 C18.21943359 7.29619141 18.21621094 8.33066406 18.21289062 9.39648438 C18.20451172 10.48509766 18.19613281 11.57371094 18.1875 12.6953125 C18.18298828 13.78779297 18.17847656 14.88027344 18.17382812 16.00585938 C18.16199826 18.71489745 18.14551543 21.42382849 18.125 24.1328125 C12.05353635 26.28826437 12.05353635 26.28826437 8.125 25.1328125 C5.45196922 25.03476697 2.80108809 25.08821103 0.125 25.1328125 C0.125 25.4628125 0.125 25.7928125 0.125 26.1328125 C-2.25 26.3203125 -2.25 26.3203125 -4.875 26.1328125 C-7.10778283 22.78363825 -7.08457032 21.93152033 -6.88671875 18.0625 C-6.83966797 17.08410156 -6.79261719 16.10570313 -6.74414062 15.09765625 C-6.68419922 14.07800781 -6.62425781 13.05835937 -6.5625 12.0078125 C-6.51416016 10.98042969 -6.46582031 9.95304687 -6.41601562 8.89453125 C-5.95228698 0.00737713 -5.95228698 0.00737713 0 0 Z M2.0625 2.1328125 C0.433125 2.4628125 -1.19625 2.7928125 -2.875 3.1328125 C-2.875 9.4028125 -2.875 15.6728125 -2.875 22.1328125 C0.05375 22.1534375 2.9825 22.1740625 6 22.1953125 C6.92151855 22.2044165 7.84303711 22.21352051 8.79248047 22.22290039 C9.51838379 22.22539795 10.24428711 22.22789551 10.9921875 22.23046875 C11.73581543 22.23570557 12.47944336 22.24094238 13.24560547 22.24633789 C15.21632568 22.25067886 15.21632568 22.25067886 17.125 21.1328125 C17.125 14.5328125 17.125 7.9328125 17.125 1.1328125 C9.40170431 1.09674131 9.40170431 1.09674131 2.0625 2.1328125 Z " fill="#333333" transform="translate(32.875,54.8671875)"/>
<path d="M0 0 C29.37 0 58.74 0 89 0 C85.58180041 3.41819959 82.30021655 3.11639952 77.66137695 3.12442017 C76.79319336 3.12082489 75.92500977 3.11722961 75.03051758 3.11352539 C73.65460701 3.11374443 73.65460701 3.11374443 72.25090027 3.1139679 C69.21541997 3.11327057 66.18000084 3.10548656 63.14453125 3.09765625 C61.04131606 3.09579143 58.93810043 3.09436783 56.83488464 3.09336853 C51.29630334 3.08954839 45.7577482 3.07972237 40.21917725 3.06866455 C34.56864781 3.05843964 28.91811415 3.05386859 23.26757812 3.04882812 C12.17837391 3.03809968 1.08918913 3.02102926 -10 3 C-10 2.67 -10 2.34 -10 2 C-6.7 2 -3.4 2 0 2 C0 1.34 0 0.68 0 0 Z " fill="#1B1C1C" transform="translate(69,189)"/>
<path d="M0 0 C2.10449721 3.44962163 2.24332803 6.14130431 2.22705078 10.14550781 C2.22689972 11.38649231 2.22674866 12.62747681 2.22659302 13.90606689 C2.21638061 15.2550879 2.20594864 16.60410727 2.1953125 17.953125 C2.19158049 19.3374613 2.18873441 20.72180025 2.18673706 22.10614014 C2.17911534 25.7426691 2.15947955 29.37903731 2.1373291 33.01550293 C2.11683909 36.72906317 2.10772861 40.44264948 2.09765625 44.15625 C2.07623215 51.43757314 2.04211401 58.71876401 2 66 C1.67 66 1.34 66 1 66 C1 58.41 1 50.82 1 43 C0.34 43 -0.32 43 -1 43 C-1.12713885 28.62744208 -0.87999163 14.34700641 0 0 Z " fill="#2F2F2F" transform="translate(157,58)"/>
<path d="M0 0 C0 0.66 0 1.32 0 2 C0.66 2.33 1.32 2.66 2 3 C1.34 3 0.68 3 0 3 C0.01160156 4.14339844 0.02320313 5.28679688 0.03515625 6.46484375 C0.04453288 7.95572754 0.05363321 9.44661309 0.0625 10.9375 C0.07087891 11.69224609 0.07925781 12.44699219 0.08789062 13.22460938 C0.09652441 15.14994313 0.05224333 17.07535581 0 19 C-1 20 -1 20 -4.5625 20.0625 C-5.696875 20.041875 -6.83125 20.02125 -8 20 C-6.625 18.5 -6.625 18.5 -5 17 C-4.34 17 -3.68 17 -3 17 C-3 12.38 -3 7.76 -3 3 C-3.66 3 -4.32 3 -5 3 C-5 2.01 -5 1.02 -5 0 C-6.65 0 -8.3 0 -10 0 C-10 -0.33 -10 -0.66 -10 -1 C-5.94568308 -2.15837626 -3.78187881 -1.83691257 0 0 Z " fill="#313232" transform="translate(22,30)"/>
<path d="M0 0 C0.66 0 1.32 0 2 0 C2.16755938 3.95075379 2.3281242 7.90172321 2.48217773 11.85302734 C2.56187238 13.85920071 2.64712518 15.86515076 2.73242188 17.87109375 C2.78076172 19.12792969 2.82910156 20.38476562 2.87890625 21.6796875 C2.94960327 23.42354736 2.94960327 23.42354736 3.02172852 25.20263672 C3 28 3 28 2 30 C1.34 30 0.68 30 0 30 C0 20.1 0 10.2 0 0 Z " fill="#121213" transform="translate(156,101)"/>
<path d="M0 0 C0.33 0 0.66 0 1 0 C1.06058594 1.14339844 1.12117187 2.28679687 1.18359375 3.46484375 C1.26798428 4.95574305 1.35263302 6.44662775 1.4375 7.9375 C1.47681641 8.69224609 1.51613281 9.44699219 1.55664062 10.22460938 C1.44038024 13.91944187 1.44038024 13.91944187 3 17 C3.08775605 19.14558827 3.10695219 21.29404421 3.09765625 23.44140625 C3.09443359 24.74658203 3.09121094 26.05175781 3.08789062 27.39648438 C3.07953401 28.7851569 3.07106905 30.17382877 3.0625 31.5625 C3.05748666 32.95507656 3.05292347 34.34765481 3.04882812 35.74023438 C3.03699434 39.1601987 3.0205088 42.58007844 3 46 C2.67 46 2.34 46 2 46 C2 38.41 2 30.82 2 23 C1.34 23 0.68 23 0 23 C0 15.41 0 7.82 0 0 Z " fill="#3F3F3E" transform="translate(156,78)"/>
<path d="M0 0 C0.33 0 0.66 0 1 0 C1 4.95 1 9.9 1 15 C6.61 15 12.22 15 18 15 C18 15.33 18 15.66 18 16 C13.64667264 16.84023188 9.55557481 17.10770995 5.125 17.0625 C3.97257813 17.05347656 2.82015625 17.04445313 1.6328125 17.03515625 C0.76398437 17.02355469 -0.10484375 17.01195313 -1 17 C-1.12036664 11.22240116 -0.8320582 5.72040011 0 0 Z " fill="#212122" transform="translate(2,33)"/>
<path d="M0 0 C-0.66 0 -1.32 0 -2 0 C-2.33 0.99 -2.66 1.98 -3 3 C-3.78246094 3.12117188 -4.56492187 3.24234375 -5.37109375 3.3671875 C-6.88896484 3.61855469 -6.88896484 3.61855469 -8.4375 3.875 C-9.44683594 4.03742187 -10.45617187 4.19984375 -11.49609375 4.3671875 C-12.32238281 4.57601562 -13.14867188 4.78484375 -14 5 C-14.33 5.66 -14.66 6.32 -15 7 C-17.97 6.505 -17.97 6.505 -21 6 C-18.1758528 3.1758528 -14.79018978 2.46326439 -11.0625 1.3125 C-10.33353516 1.07466797 -9.60457031 0.83683594 -8.85351562 0.59179688 C-3.3681151 -1.12270503 -3.3681151 -1.12270503 0 0 Z " fill="#1F1F1E" transform="translate(96,30)"/>
<path d="M0 0 C0 0.66 0 1.32 0 2 C0.66 2.33 1.32 2.66 2 3 C1.34 3 0.68 3 0 3 C-0.33 3.66 -0.66 4.32 -1 5 C-2.32 4.34 -3.64 3.68 -5 3 C-5 2.01 -5 1.02 -5 0 C-6.65 0 -8.3 0 -10 0 C-10 -0.33 -10 -0.66 -10 -1 C-5.94568308 -2.15837626 -3.78187881 -1.83691257 0 0 Z " fill="#3E4140" transform="translate(22,30)"/>
<path d="M0 0 C0 0.66 0 1.32 0 2 C-1.55966218 2.508783 -3.12289241 3.00663469 -4.6875 3.5 C-5.99267578 3.91765625 -5.99267578 3.91765625 -7.32421875 4.34375 C-9.99391677 4.99850805 -12.26396684 5.11831495 -15 5 C-14 3 -14 3 -11.6015625 2.1484375 C-10.61929688 1.89320312 -9.63703125 1.63796875 -8.625 1.375 C-7.64789063 1.11460938 -6.67078125 0.85421875 -5.6640625 0.5859375 C-3 0 -3 0 0 0 Z " fill="#20201F" transform="translate(116,23)"/>
<path d="M0 0 C0.33 0 0.66 0 1 0 C1 2.31 1 4.62 1 7 C2.65 6.67 4.3 6.34 6 6 C6 6.99 6 7.98 6 9 C3.69 9 1.38 9 -1 9 C-1.09765625 2.84765625 -1.09765625 2.84765625 -1 1 C-0.67 0.67 -0.34 0.34 0 0 Z " fill="#171717" transform="translate(157,24)"/>
<path d="M0 0 C0.33 0 0.66 0 1 0 C1.12117187 0.75925781 1.24234375 1.51851562 1.3671875 2.30078125 C1.53476563 3.29464844 1.70234375 4.28851563 1.875 5.3125 C2.11863281 6.79169922 2.11863281 6.79169922 2.3671875 8.30078125 C2.88085454 11.20059827 2.88085454 11.20059827 5 14 C3.68 14 2.36 14 1 14 C0.67 12.02 0.34 10.04 0 8 C-0.66 8 -1.32 8 -2 8 C-1.33333333 5.33333333 -0.66666667 2.66666667 0 0 Z " fill="#464745" transform="translate(157,17)"/>
<path d="M0 0 C1.46067199 0.45082469 2.91848032 0.91093537 4.375 1.375 C5.18710937 1.63023437 5.99921875 1.88546875 6.8359375 2.1484375 C9 3 9 3 11 5 C7.96929372 6.28222189 6.96403086 5.98589446 3.8125 4.75 C1 3 1 3 0 0 Z " fill="#232424" transform="translate(40,196)"/>
<path d="M0 0 C3.3 0.33 6.6 0.66 10 1 C6 4 6 4 3 4 C3 3.34 3 2.68 3 2 C2.01 1.34 1.02 0.68 0 0 Z " fill="#3F453F" transform="translate(134,4)"/>
<path d="M0 0 C3.3 0 6.6 0 10 0 C10 0.33 10 0.66 10 1 C6.7 1 3.4 1 0 1 C0 0.67 0 0.34 0 0 Z " fill="#434343" transform="translate(109,184)"/>
<path d="M0 0 C0.33 0 0.66 0 1 0 C1 2.31 1 4.62 1 7 C0.67 7 0.34 7 0 7 C0 4.69 0 2.38 0 0 Z " fill="#242424" transform="translate(25,159)"/>
<path d="M0 0 C1.32 0.66 2.64 1.32 4 2 C2.35 2 0.7 2 -1 2 C-0.67 1.34 -0.34 0.68 0 0 Z " fill="#323232" transform="translate(30,89)"/>
<path d="M0 0 C1.98 0 3.96 0 6 0 C6 0.33 6 0.66 6 1 C4.02 1 2.04 1 0 1 C0 0.67 0 0.34 0 0 Z " fill="#626262" transform="translate(78,184)"/>
<path d="M0 0 C0.33 0 0.66 0 1 0 C1 1.98 1 3.96 1 6 C0.67 6 0.34 6 0 6 C0 4.02 0 2.04 0 0 Z " fill="#2A2A2A" transform="translate(25,167)"/>
<path d="M0 0 C4 1 4 1 4 1 Z " fill="#545454" transform="translate(120,184)"/>
<path d="M0 0 C4 1 4 1 4 1 Z " fill="#1F1F1F" transform="translate(91,184)"/>
<path d="M0 0 C4 1 4 1 4 1 Z " fill="#353535" transform="translate(125,160)"/>
<path d="M0 0 C1 4 1 4 1 4 Z " fill="#1F1F1F" transform="translate(25,105)"/>
<path d="M0 0 C1 4 1 4 1 4 Z " fill="#1F1F1F" transform="translate(163,92)"/>
<path d="M0 0 C1 4 1 4 1 4 Z " fill="#1F1F1F" transform="translate(163,68)"/>
<path d="M0 0 C1 4 1 4 1 4 Z " fill="#3F3F3F" transform="translate(25,65)"/>
<path d="M0 0 C0.99 0.33 1.98 0.66 3 1 C2.01 1 1.02 1 0 1 C0 0.67 0 0.34 0 0 Z " fill="#3F3F3F" transform="translate(99,31)"/>
<path d="" fill="#2A2A2A" transform="translate(0,0)"/>
<path d="M0 0 C3 1 3 1 3 1 Z " fill="#1C1C1C" transform="translate(97,184)"/>
<path d="" fill="#7F7F7F" transform="translate(0,0)"/>
<path d="" fill="#000000" transform="translate(0,0)"/>
<path d="" fill="#545454" transform="translate(0,0)"/>
<path d="" fill="#717171" transform="translate(0,0)"/>
<path d="" fill="#2A2A2A" transform="translate(0,0)"/>
<path d="" fill="#535353" transform="translate(0,0)"/>
<path d="" fill="#000000" transform="translate(0,0)"/>
<path d="" fill="#3F3F3F" transform="translate(0,0)"/>
<path d="M0 0 C2 1 2 1 2 1 Z " fill="#3F3F3F" transform="translate(55,187)"/>
<path d="M0 0 C2 1 2 1 2 1 Z " fill="#6A6A6A" transform="translate(141,184)"/>
<path d="M0 0 C2 1 2 1 2 1 Z " fill="#3F3F3F" transform="translate(125,184)"/>
<path d="M0 0 C2 1 2 1 2 1 Z " fill="#3F3F3F" transform="translate(101,184)"/>
<path d="M0 0 C2 1 2 1 2 1 Z " fill="#3F3F3F" transform="translate(85,184)"/>
<path d="" fill="#000000" transform="translate(0,0)"/>
<path d="" fill="#2A2A2A" transform="translate(0,0)"/>
<path d="M0 0 C2 1 2 1 2 1 Z " fill="#000000" transform="translate(63,161)"/>
<path d="M0 0 C2 1 2 1 2 1 Z " fill="#000000" transform="translate(58,161)"/>
<path d="M0 0 C2 1 2 1 2 1 Z " fill="#000000" transform="translate(81,156)"/>
<path d="" fill="#000000" transform="translate(0,0)"/>
<path d="M0 0 C2 1 2 1 2 1 Z " fill="#3F3F3F" transform="translate(117,145)"/>
<path d="" fill="#5F5F5F" transform="translate(0,0)"/>
<path d="" fill="#3F3F3F" transform="translate(0,0)"/>
<path d="" fill="#000000" transform="translate(0,0)"/>
<path d="" fill="#3F3F3F" transform="translate(0,0)"/>
<path d="" fill="#3F3F3F" transform="translate(0,0)"/>
<path d="" fill="#000000" transform="translate(0,0)"/>
<path d="" fill="#000000" transform="translate(0,0)"/>
<path d="" fill="#000000" transform="translate(0,0)"/>
<path d="" fill="#3F3F3F" transform="translate(0,0)"/>
<path d="M0 0 C2 1 2 1 2 1 Z " fill="#3F3F3F" transform="translate(170,30)"/>
<path d="M0 0 C2 1 2 1 2 1 Z " fill="#7F7F7F" transform="translate(124,23)"/>
<path d="" fill="#4A4A4A" transform="translate(0,0)"/>
<path d="" fill="#000000" transform="translate(0,0)"/>
<path d="" fill="#3F3F3F" transform="translate(0,0)"/>
<path d="" fill="#000000" transform="translate(0,0)"/>
<path d="" fill="#3F7F3F" transform="translate(0,0)"/>
<path d="" fill="#000000" transform="translate(0,0)"/>
<path d="" fill="#000000" transform="translate(0,0)"/>
<path d="" fill="#000000" transform="translate(0,0)"/>
<path d="" fill="#000000" transform="translate(0,0)"/>
<path d="" fill="#000000" transform="translate(0,0)"/>
<path d="" fill="#000000" transform="translate(0,0)"/>
<path d="" fill="#7F7F7F" transform="translate(0,0)"/>
<path d="" fill="#555555" transform="translate(0,0)"/>
<path d="" fill="#000000" transform="translate(0,0)"/>
<path d="" fill="#7F7F7F" transform="translate(0,0)"/>
<path d="" fill="#3F3F3F" transform="translate(0,0)"/>
<path d="" fill="#555555" transform="translate(0,0)"/>
<path d="" fill="#000000" transform="translate(0,0)"/>
<path d="" fill="#555555" transform="translate(0,0)"/>
<path d="" fill="#555555" transform="translate(0,0)"/>
<path d="" fill="#000000" transform="translate(0,0)"/>
<path d="" fill="#000000" transform="translate(0,0)"/>
<path d="" fill="#7F7F7F" transform="translate(0,0)"/>
<path d="" fill="#000000" transform="translate(0,0)"/>
<path d="" fill="#000000" transform="translate(0,0)"/>
<path d="" fill="#000000" transform="translate(0,0)"/>
<path d="" fill="#7F7F7F" transform="translate(0,0)"/>
<path d="" fill="#7F7F7F" transform="translate(0,0)"/>
<path d="" fill="#000000" transform="translate(0,0)"/>
<path d="" fill="#000000" transform="translate(0,0)"/>
<path d="" fill="#000000" transform="translate(0,0)"/>
<path d="" fill="#000000" transform="translate(0,0)"/>
<path d="" fill="#000000" transform="translate(0,0)"/>
<path d="" fill="#000000" transform="translate(0,0)"/>
<path d="" fill="#000000" transform="translate(0,0)"/>
<path d="" fill="#7F7F7F" transform="translate(0,0)"/>
<path d="" fill="#000000" transform="translate(0,0)"/>
<path d="" fill="#000000" transform="translate(0,0)"/>
<path d="" fill="#7F7F7F" transform="translate(0,0)"/>
<path d="" fill="#555555" transform="translate(0,0)"/>
<path d="" fill="#7F7F7F" transform="translate(0,0)"/>
<path d="" fill="#000000" transform="translate(0,0)"/>
<path d="" fill="#7F7F7F" transform="translate(0,0)"/>
<path d="" fill="#000000" transform="translate(0,0)"/>
<path d="" fill="#555555" transform="translate(0,0)"/>
<path d="" fill="#000000" transform="translate(0,0)"/>
<path d="" fill="#7F7F7F" transform="translate(0,0)"/>
<path d="" fill="#000000" transform="translate(0,0)"/>
<path d="" fill="#000000" transform="translate(0,0)"/>
<path d="" fill="#000000" transform="translate(0,0)"/>
<path d="" fill="#000000" transform="translate(0,0)"/>
<path d="" fill="#000000" transform="translate(0,0)"/>
<path d="" fill="#000000" transform="translate(0,0)"/>
<path d="" fill="#000000" transform="translate(0,0)"/>
<path d="" fill="#000000" transform="translate(0,0)"/>
<path d="" fill="#7F7F7F" transform="translate(0,0)"/>
<path d="" fill="#7F7F7F" transform="translate(0,0)"/>
<path d="" fill="#000000" transform="translate(0,0)"/>
<path d="" fill="#000000" transform="translate(0,0)"/>
<path d="" fill="#000000" transform="translate(0,0)"/>
<path d="" fill="#3F3F3F" transform="translate(0,0)"/>
<path d="" fill="#000000" transform="translate(0,0)"/>
<path d="" fill="#7F7F7F" transform="translate(0,0)"/>
<path d="" fill="#000000" transform="translate(0,0)"/>
<path d="" fill="#7F7F7F" transform="translate(0,0)"/>
<path d="" fill="#000000" transform="translate(0,0)"/>
<path d="" fill="#000000" transform="translate(0,0)"/>
<path d="" fill="#000000" transform="translate(0,0)"/>
<path d="" fill="#000000" transform="translate(0,0)"/>
<path d="" fill="#000000" transform="translate(0,0)"/>
<path d="" fill="#7F7F7F" transform="translate(0,0)"/>
<path d="" fill="#000000" transform="translate(0,0)"/>
<path d="" fill="#000000" transform="translate(0,0)"/>
<path d="" fill="#666666" transform="translate(0,0)"/>
<path d="" fill="#000000" transform="translate(0,0)"/>
<path d="" fill="#000000" transform="translate(0,0)"/>
<path d="" fill="#7F7F7F" transform="translate(0,0)"/>
<path d="" fill="#000000" transform="translate(0,0)"/>
<path d="" fill="#000000" transform="translate(0,0)"/>
<path d="" fill="#000000" transform="translate(0,0)"/>
<path d="" fill="#000000" transform="translate(0,0)"/>
<path d="" fill="#000000" transform="translate(0,0)"/>
<path d="" fill="#000000" transform="translate(0,0)"/>
<path d="" fill="#000000" transform="translate(0,0)"/>
<path d="" fill="#000000" transform="translate(0,0)"/>
<path d="" fill="#000000" transform="translate(0,0)"/>
<path d="" fill="#000000" transform="translate(0,0)"/>
<path d="" fill="#555555" transform="translate(0,0)"/>
<path d="" fill="#000000" transform="translate(0,0)"/>
<path d="" fill="#000000" transform="translate(0,0)"/>
<path d="" fill="#000000" transform="translate(0,0)"/>
<path d="" fill="#000000" transform="translate(0,0)"/>
<path d="" fill="#000000" transform="translate(0,0)"/>
<path d="" fill="#000000" transform="translate(0,0)"/>
<path d="" fill="#000000" transform="translate(0,0)"/>
</svg>
